<?xml version="1.0" encoding="utf-8"?>
<!-- Generator: Adobe Illustrator 25.0.0, SVG Export Plug-In . SVG Version: 6.00 Build 0)  -->
<svg version="1.1" id="Layer_1" xmlns="http://www.w3.org/2000/svg" xmlns:xlink="http://www.w3.org/1999/xlink" x="0px" y="0px"
	 viewBox="0 0 1000 1000" style="enable-background:new 0 0 1000 1000;" xml:space="preserve">
<style type="text/css">
	.st0{fill-rule:evenodd;clip-rule:evenodd; fill: red; stroke: white; stroke-width: 5;}
</style>
<g>
	<path class="st0" d="M732,322.1l-25.2-7.9l18.4-58.1l23.4,7.4c12.4,3.8,23.2,18.7,17.3,36.9C760.1,318.9,742.1,325.2,732,322.1
		L732,322.1z M730.9,346.6l-31.1-9.7l-13.7,43.2l-35.1-11l46.4-146.7l64.8,20.5c30.4,9.4,47.9,40.1,38.9,68.6
		C790.5,344.8,757.7,355.1,730.9,346.6L730.9,346.6z M1000,370.2c-8.5,101.3-26.8,202.7-59.6,304C907.1,775.5,863,870.4,810.1,958
		c-99,23.4-202.5,36-308.7,36c-106.4,0-210.2-11.9-309.4-35.8h-0.4c-52.7-86.9-96.8-181.4-129.6-282.6C29.3,574.5,8.1,472.1,0,370.2
		v-0.5c66.6-77.4,143.1-148.5,228.6-210.6C314.8,96.4,406.4,46.2,500.4,7l0,0c93.4,39.2,185,89.6,270.7,151.7
		c86,62.6,162.5,133.7,228.8,211.3V370.2L1000,370.2z M786,925.3c48.2-81.5,88.2-169.2,118.8-262.8C935,569.6,953,476,962,383l0,0
		c-62.3-71.1-133.2-136.4-212.9-194.2C669.9,131.5,586.2,84.4,500.2,47.1c-86.4,37.1-170.1,84.4-249.6,142.2
		C171.5,246.9,101,311.5,39.2,381.5l0.2,0.2c8.6,94.5,27.9,189,58.1,282.6c29.9,93.2,70,180.2,117.5,260.6l0.2-0.2
		c92.3,20.7,188.1,32,286.2,32c98.1,0,193.5-11.3,284.9-31.5L786,925.3z M500.4,730.5L784,923.1L500.4,575.4L216.9,923.1
		L500.4,730.5L500.4,730.5z M500.4,575.4l399.2-173.5c-121.3,21.4-270.9,42.8-399.2,42.8c-128.3,0-277.9-21.4-399.2-42.8
		L500.4,575.4L500.4,575.4z M632.5,253.2l8.3-37.6c-8.6-6.3-18.4-11.3-29.5-13.7c-42.3-9.5-85.1,17.5-94.5,59.9
		c-9.7,43,17.3,85.5,59.6,95.2c11,2.5,22.1,2.7,32.4,0.4l8.6-37.4c-9.7,5.6-21.8,7.7-33.5,5.2c-25-5.6-40.7-30.8-35.1-56
		c5.6-24.8,30.6-40.7,55.6-35.1C616.3,236.8,626.2,244,632.5,253.2L632.5,253.2z M471.2,239.2l-2-38.5c-9.9-3.8-20.7-5.9-32-5.2
		c-43.4,2-77.4,39.4-75.2,82.8c2,43.9,39.4,77.9,82.8,75.6c11.3-0.4,22.1-3.1,31.5-8.1l-1.8-38.3c-7.9,8.1-18.9,13.3-31.1,14
		c-25.4,1.1-47.5-18.7-48.6-44.6c-1.4-25.4,18.5-47.5,44.1-48.8C451.2,227.8,462.6,232,471.2,239.2L471.2,239.2z M315.9,267.6
		L304,230.9c-10.6-1.1-21.6-0.2-32.2,3.4c-41.4,13.3-64.4,58.3-51.1,99.7c13.5,41.6,58.5,64.6,99.9,51.3c10.6-3.4,20.3-8.8,28.1-16
		l-11.9-36.7c-5.4,9.9-14.6,17.8-26.1,21.6c-24.3,7.9-50.6-5.6-58.7-30.2c-7.9-24.5,5.6-50.9,29.9-58.7
		C293.7,261.8,305.8,262.9,315.9,267.6L315.9,267.6z"/>
</g>
</svg>
